<svg xmlns="http://www.w3.org/2000/svg" fill="none" viewBox="0 0 24 24" id="Adb--Streamline-Rounded-Material" height="24" width="24">
  <desc>
    Adb Streamline Icon: https://streamlinehq.com
  </desc>
  <path fill="#000000" d="M5 10.975v-1c0 -1.2 0.275 -2.29165 0.825 -3.275 0.55 -0.98335 1.275 -1.791665 2.175 -2.425L6.125 2.4l0.9 -0.9 2.1125 2.1c0.43085 -0.2 0.8906 -0.354165 1.37925 -0.4625C11.0056 3.029165 11.5 2.975 12 2.975s0.99585 0.054165 1.4875 0.1625c0.49165 0.108335 0.95415 0.2625 1.3875 0.4625l2.1 -2.1 0.9 0.9L16 4.275c0.9 0.633335 1.625 1.44365 2.175 2.431 0.55 0.98735 0.825 2.0784 0.825 3.27325V10.975H5Zm10 -2c0.28335 0 0.52085 -0.09585 0.7125 -0.2875S16 8.25835 16 7.975c0 -0.28335 -0.09585 -0.52085 -0.2875 -0.7125s-0.42915 -0.2875 -0.7125 -0.2875c-0.28335 0 -0.52085 0.09585 -0.7125 0.2875S14 7.69165 14 7.975c0 0.28335 0.09585 0.52085 0.2875 0.7125s0.42915 0.2875 0.7125 0.2875Zm-6 0c0.28335 0 0.52085 -0.09585 0.7125 -0.2875S10 8.25835 10 7.975c0 -0.28335 -0.09585 -0.52085 -0.2875 -0.7125s-0.42915 -0.2875 -0.7125 -0.2875c-0.28335 0 -0.52085 0.09585 -0.7125 0.2875S8 7.69165 8 7.975c0 0.28335 0.09585 0.52085 0.2875 0.7125s0.42915 0.2875 0.7125 0.2875ZM12 23c-1.95 0 -3.60415 -0.67915 -4.9625 -2.0375C5.67915 19.60415 5 17.95 5 16v-4.025h14V16c0 1.95 -0.67915 3.60415 -2.0375 4.9625C15.60415 22.32085 13.95 23 12 23Z" stroke-width="0.5"></path>
</svg>